{"title":"Elementary S02E21 HDTV x264 AAC E-Subs [GWC].mp4","uid":10037170,"size":130349474,"categoryP":"video","categoryS":"tv_shows","magnet":"?xt=urn:btih:448f5d9b04edbfe75320a9fd0343c8581bfd677a&amp;dn=Elementary+S02E21+HDTV+x264+AAC+E-Subs+%5BGWC%5D.mp4&amp;tr=udp%3A%2F%2Ftracker.openbittorrent.com%3A80&amp;tr=udp%3A%2F%2Fopen.demonii.com%3A1337&amp;tr=udp%3A%2F%2Ftracker.coppersurfer.tk%3A6969&amp;tr=udp%3A%2F%2Fexodus.desync.com%3A6969","seeders":5,"leechers":0,"uploader":"canc232","files":1,"time":1398414021,"description":"Elementary S02E21 HDTV x264 AAC E-Subs [GWC] \n\n\nSTORYLINE :\nA modern take on the cases of Sherlock Holmes, with the detective now living in New York City.\n\n\nSCREENS : &lt;a href=&quot;\nhttp://i.imgur.com/gMMXbps.jpg&quot; rel=&quot;nofollow&quot; target=&quot;_NEW&quot;&gt;\nhttp://i.imgur.com/gMMXbps.jpg&lt;/a&gt; &lt;a href=&quot;\nhttp://i.imgur.com/BT0chNN.jpg&quot; rel=&quot;nofollow&quot; target=&quot;_NEW&quot;&gt;\nhttp://i.imgur.com/BT0chNN.jpg&lt;/a&gt; &lt;a href=&quot;\nhttp://i.imgur.com/Ui8p786.jpg&quot; rel=&quot;nofollow&quot; target=&quot;_NEW&quot;&gt;\nhttp://i.imgur.com/Ui8p786.jpg&lt;/a&gt;\n\n\nMEDIA INFO :\nGeneral \nFormat : MPEG-4 \nFormat profile : Base Media \nFile size : 124 MiB \nDuration : 43mn 26s \nOverall bit rate mode : Variable \nOverall bit rate : 400 Kbps \n\nVideo \nFormat : AVC \nFormat profile : &lt;a class=&quot;__cf_email__&quot; href=&quot;/cdn-cgi/l/email-protection&quot; data-cfemail=&quot;024a6b656a424e312c32&quot;&gt;[email&amp;#160;protected]&lt;/a&gt;&lt;script cf-hash='f9e31' type=&quot;text/javascript&quot;&gt;\n/* &lt;![CDATA[ */!function(){try{var t=&quot;currentScript&quot;in document?document.currentScript:function(){for(var t=document.getElementsByTagName(&quot;script&quot;),e=t.length;e--;)if(t[e].getAttribute(&quot;cf-hash&quot;))return t[e]}();if(t&amp;&amp;t.previousSibling){var e,r,n,i,c=t.previousSibling,a=c.getAttribute(&quot;data-cfemail&quot;);if(a){for(e=&quot;&quot;,r=parseInt(a.substr(0,2),16),n=2;a.length-n;n+=2)i=parseInt(a.substr(n,2),16)^r,e+=String.fromCharCode(i);e=document.createTextNode(e),c.parentNode.replaceChild(e,c)}}}catch(u){}}();/* ]]&gt; */&lt;/script&gt; \nFormat settings, CABAC : Yes \nFormat settings, ReFrames : 4 frames \nDuration : 43mn 26s \nBit rate : 337 Kbps \nMaximum bit rate : 2 276 Kbps \nWidth : 720 pixels \nHeight : 404 pixels \nDisplay aspect ratio : 16:9 \nFrame rate : 23.976 fps \nStream size : 105 MiB (84%) \nTitle : Elementary S02E21 HDTV x264 AAC E-Subs [GWC] \nWriting library : x264 core\n\nAudio \nFormat : AAC \nFormat profile : HE-AAC / LC \nDuration : 43mn 26s \nBit rate mode : Variable \nChannel(s) : 2 channels \nSampling rate : 48.0 KHz / 24.0 KHz \nStream size : 18.6 MiB (15%) \nLanguage : English \n\nText \nFormat : Timed Text \nTitle : English Subtitle by elderman \nLanguage : English ","torrent":{"xt":"urn:btih:448f5d9b04edbfe75320a9fd0343c8581bfd677a","amp;dn":"Elementary+S02E21+HDTV+x264+AAC+E-Subs+%5BGWC%5D.mp4","amp;tr":["udp%3A%2F%2Ftracker.openbittorrent.com%3A80","udp%3A%2F%2Fopen.demonii.com%3A1337","udp%3A%2F%2Ftracker.coppersurfer.tk%3A6969","udp%3A%2F%2Fexodus.desync.com%3A6969"],"infoHash":"448f5d9b04edbfe75320a9fd0343c8581bfd677a","infoHashBuffer":{"type":"Buffer","data":[68,143,93,155,4,237,191,231,83,32,169,253,3,67,200,88,27,253,103,122]},"announce":[],"urlList":[]}}